<svg width="35" height="39" viewBox="0 0 35 39" fill="none" xmlns="http://www.w3.org/2000/svg">
<path fill-rule="evenodd" clip-rule="evenodd" d="M17.3327 38.2071C17.1956 38.2071 17.0649 38.1498 16.9718 38.0491C14.0566 34.8917 10.434 33.3794 6.20353 33.5526C3.03813 33.6827 0.722573 34.752 0.699544 34.7628C0.547481 34.834 0.369449 34.8227 0.227649 34.7326C0.0859373 34.6425 0 34.4862 0 34.3182L8.91686e-05 15.0569C8.91686e-05 14.8369 0.14653 14.6436 0.358293 14.5841L3.14523 13.8011C3.40625 13.7278 3.67745 13.8799 3.7508 14.1411C3.82416 14.4023 3.672 14.6734 3.41089 14.7467L0.982247 15.429V33.59C1.94585 33.2361 3.82664 32.6672 6.16319 32.5713C8.1434 32.4897 10.0387 32.7681 11.7972 33.3983C13.8432 34.1313 15.703 35.3431 17.3326 37.0038C18.9622 35.3432 20.8221 34.1315 22.868 33.3983C24.6264 32.7682 26.5215 32.4904 28.502 32.5713C30.8386 32.6673 32.7193 33.2362 33.6829 33.59V15.429L31.2543 14.7467C30.9933 14.6734 30.841 14.4023 30.9144 14.1411C30.9878 13.8799 31.2593 13.7278 31.52 13.8011L34.3069 14.5841C34.5188 14.6436 34.6651 14.8369 34.6651 15.0569V34.3182C34.6651 34.4862 34.5793 34.6425 34.4375 34.7326C34.2957 34.8227 34.1177 34.8341 33.9657 34.7628C33.9427 34.752 31.5973 33.674 28.4254 33.5511C24.2106 33.3876 20.5999 34.9013 17.6934 38.0491C17.6005 38.1499 17.4697 38.2071 17.3327 38.2071Z" fill="#FEFEFE"/>
<path fill-rule="evenodd" clip-rule="evenodd" d="M17.3327 33.1195C17.1804 33.1195 17.037 33.0489 16.944 32.9285C15.2457 30.7293 12.5134 29.6143 8.82322 29.6143C5.89877 29.6143 3.44605 30.3521 3.4216 30.3595C3.27257 30.4049 3.11113 30.3771 2.98602 30.2846C2.86082 30.1919 2.78711 30.0455 2.78711 29.8899V10.2854C2.78711 10.1232 2.86725 9.97129 3.00119 9.87982C4.35977 8.95191 5.93589 8.48145 7.68578 8.48145C12.0246 8.48145 16.1796 11.3307 17.3328 12.1891C18.4857 11.3308 22.6406 8.48153 26.9797 8.48153C28.7295 8.48153 30.3057 8.952 31.6643 9.87991C31.7983 9.97138 31.8784 10.1232 31.8784 10.2855V29.8899C31.8784 30.0457 31.8045 30.1921 31.6793 30.2847C31.5542 30.3774 31.3924 30.4049 31.2436 30.3595C31.2194 30.3521 28.7671 29.6144 25.8422 29.6144C22.1518 29.6144 19.4196 30.7294 17.7214 32.9286C17.6283 33.0489 17.4848 33.1195 17.3327 33.1195ZM8.82324 28.632C12.5142 28.632 15.4408 29.7457 17.3327 31.8607C19.2246 29.7457 22.1511 28.632 25.8421 28.632C28.0413 28.632 29.9481 29.0178 30.8963 29.25L30.8962 10.5504C29.7526 9.82907 28.4364 9.46373 26.9797 9.46373C22.3225 9.46373 17.687 13.1532 17.6407 13.1906C17.4608 13.3354 17.2045 13.3354 17.0247 13.1906C16.9785 13.1534 12.3346 9.46364 7.68586 9.46364C6.22904 9.46364 4.91285 9.82898 3.76927 10.5503V29.25C4.71743 29.0179 6.62448 28.632 8.82324 28.632Z" fill="#FEFEFE"/>
<path fill-rule="evenodd" clip-rule="evenodd" d="M17.3326 33.1195C17.0614 33.1195 16.8416 32.8997 16.8416 32.6285V12.808C16.8416 12.5368 17.0613 12.3169 17.3326 12.3169C17.6038 12.3169 17.8237 12.5368 17.8237 12.808V32.6285C17.8237 32.8996 17.6038 33.1195 17.3326 33.1195Z" fill="#FEFEFE"/>
<path fill-rule="evenodd" clip-rule="evenodd" d="M14.3055 14.2143H6.30505C6.03385 14.2143 5.81396 13.9945 5.81396 13.7233C5.81396 13.452 6.03385 13.2322 6.30505 13.2322H14.3055C14.5767 13.2322 14.7966 13.452 14.7966 13.7233C14.7966 13.9945 14.5767 14.2143 14.3055 14.2143Z" fill="#FEFEFE"/>
<path fill-rule="evenodd" clip-rule="evenodd" d="M14.3055 19.7632H6.30505C6.03385 19.7632 5.81396 19.5434 5.81396 19.2721C5.81396 19.0009 6.03385 18.781 6.30505 18.781H14.3055C14.5767 18.781 14.7966 19.0009 14.7966 19.2721C14.7966 19.5434 14.5767 19.7632 14.3055 19.7632Z" fill="#FEFEFE"/>
<path fill-rule="evenodd" clip-rule="evenodd" d="M14.3055 25.3125H6.30505C6.03385 25.3125 5.81396 25.0927 5.81396 24.8214C5.81396 24.5502 6.03385 24.3303 6.30505 24.3303H14.3055C14.5767 24.3303 14.7966 24.5502 14.7966 24.8214C14.7966 25.0927 14.5767 25.3125 14.3055 25.3125Z" fill="#FEFEFE"/>
<path fill-rule="evenodd" clip-rule="evenodd" d="M28.3601 14.2143H20.3596C20.0883 14.2143 19.8685 13.9945 19.8685 13.7233C19.8685 13.452 20.0883 13.2322 20.3596 13.2322H28.3601C28.6313 13.2322 28.8511 13.452 28.8511 13.7233C28.8511 13.9945 28.6313 14.2143 28.3601 14.2143Z" fill="#FEFEFE"/>
<path fill-rule="evenodd" clip-rule="evenodd" d="M28.3601 19.7632H20.3596C20.0883 19.7632 19.8685 19.5434 19.8685 19.2721C19.8685 19.0009 20.0883 18.781 20.3596 18.781H28.3601C28.6313 18.781 28.8511 19.0009 28.8511 19.2721C28.8511 19.5434 28.6313 19.7632 28.3601 19.7632Z" fill="#FEFEFE"/>
<path fill-rule="evenodd" clip-rule="evenodd" d="M28.3601 25.3125H20.3596C20.0883 25.3125 19.8685 25.0927 19.8685 24.8214C19.8685 24.5502 20.0883 24.3303 20.3596 24.3303H28.3601C28.6313 24.3303 28.8511 24.5502 28.8511 24.8214C28.8511 25.0927 28.6313 25.3125 28.3601 25.3125Z" fill="#FEFEFE"/>
<path fill-rule="evenodd" clip-rule="evenodd" d="M30.0215 6.84347H6.95068C6.67939 6.84347 6.45959 6.62359 6.45959 6.35239V0.491084C6.45959 0.219798 6.67939 0 6.95068 0H30.0215C30.2927 0 30.5126 0.219796 30.5126 0.491084V6.35239C30.5126 6.6235 30.2927 6.84347 30.0215 6.84347ZM7.44184 5.86131H29.5304V0.982173H7.44184V5.86131Z" fill="#FEFEFE"/>
<path fill-rule="evenodd" clip-rule="evenodd" d="M6.95063 6.84345C6.87424 6.84345 6.79767 6.82569 6.72744 6.78973L0.617076 3.672C0.448682 3.58615 0.34463 3.41133 0.34927 3.22232C0.354 3.0334 0.466708 2.86394 0.639029 2.78657L6.74949 0.0431111C6.90137 -0.0251566 7.07753 -0.0116811 7.21745 0.0788069C7.35729 0.169295 7.44171 0.324481 7.44171 0.49109V6.3524C7.44171 6.52329 7.35283 6.68196 7.2071 6.77119C7.12866 6.8192 7.03978 6.84345 6.95063 6.84345ZM1.97627 3.26291L6.45962 5.55046V1.24986L1.97627 3.26291Z" fill="#FEFEFE"/>
<path fill-rule="evenodd" clip-rule="evenodd" d="M33.0762 6.84347H30.0215C29.7502 6.84347 29.5304 6.62359 29.5304 6.35239V0.491084C29.5304 0.219798 29.7502 0 30.0215 0H33.0762C33.7599 0 34.3161 0.556136 34.3161 1.2398V5.60367C34.3161 6.28724 33.7599 6.84347 33.0762 6.84347ZM30.5126 5.86131H33.0762C33.216 5.86131 33.3339 5.74325 33.3339 5.60368V1.23971C33.3339 1.10014 33.2159 0.982077 33.0762 0.982077H30.5126V5.86131Z" fill="#FEFEFE"/>
<path fill-rule="evenodd" clip-rule="evenodd" d="M30.0215 2.83568H6.95068C6.67939 2.83568 6.45959 2.6158 6.45959 2.3446C6.45959 2.07331 6.67939 1.85352 6.95068 1.85352H30.0215C30.2927 1.85352 30.5126 2.07331 30.5126 2.3446C30.5126 2.6158 30.2927 2.83568 30.0215 2.83568Z" fill="#FEFEFE"/>
<path fill-rule="evenodd" clip-rule="evenodd" d="M30.0215 4.98973H6.95068C6.67939 4.98973 6.45959 4.76994 6.45959 4.49865C6.45959 4.22745 6.67939 4.00757 6.95068 4.00757H30.0215C30.2927 4.00757 30.5126 4.22745 30.5126 4.49865C30.5126 4.76994 30.2927 4.98973 30.0215 4.98973Z" fill="#FEFEFE"/>
</svg>
