<svg width="35" height="39" viewBox="0 0 35 39" fill="none" xmlns="http://www.w3.org/2000/svg">
<path fill-rule="evenodd" clip-rule="evenodd" d="M6.70705 10.1602L3.50626 8.3141C3.09454 8.07504 2.55001 8.20785 2.32423 8.63285C2.08517 9.04457 2.21798 9.5891 2.64298 9.81488L5.84376 11.661C5.97658 11.7274 6.12267 11.7805 6.28204 11.7805C6.58751 11.7805 6.8797 11.6211 7.03908 11.3422C7.27814 10.9305 7.13204 10.3993 6.70705 10.1602Z" fill="#FFFFFE"/>
<path fill-rule="evenodd" clip-rule="evenodd" d="M5.44531 17.2657C5.44531 16.7876 5.06016 16.3892 4.56875 16.3892H0.876562C0.398437 16.3892 0 16.7743 0 17.2657C0 17.7571 0.385156 18.1423 0.876562 18.1423H4.56875C5.04688 18.129 5.44531 17.7306 5.44531 17.2657Z" fill="#FFFFFE"/>
<path fill-rule="evenodd" clip-rule="evenodd" d="M5.84378 22.857L2.643 24.7031C2.23128 24.9421 2.08519 25.4734 2.32425 25.8851C2.48363 26.1507 2.76253 26.3234 3.08128 26.3234C3.24066 26.3234 3.38675 26.2835 3.51957 26.2039L6.72035 24.3578C7.13206 24.1187 7.27816 23.5874 7.0391 23.1757C6.77347 22.7374 6.24222 22.5913 5.84378 22.857Z" fill="#FFFFFE"/>
<path fill-rule="evenodd" clip-rule="evenodd" d="M31.8617 24.7032L28.6609 22.8571C28.2492 22.618 27.7046 22.7508 27.4789 23.1758C27.2531 23.6008 27.3726 24.1321 27.7976 24.3578L30.9984 26.2039C31.1312 26.2704 31.2773 26.3235 31.4367 26.3235C31.7421 26.3235 32.0343 26.1641 32.1937 25.8852C32.4195 25.4602 32.2734 24.9289 31.8617 24.7032Z" fill="#FFFFFE"/>
<path fill-rule="evenodd" clip-rule="evenodd" d="M33.6149 16.4023H29.9227C29.4446 16.4023 29.0461 16.7875 29.0461 17.2789C29.0461 17.7703 29.4313 18.1555 29.9227 18.1555H33.6149C34.093 18.1555 34.4915 17.7703 34.4915 17.2789C34.4915 16.7875 34.1063 16.4023 33.6149 16.4023Z" fill="#FFFFFE"/>
<path fill-rule="evenodd" clip-rule="evenodd" d="M28.2493 11.7805C28.4086 11.7805 28.5547 11.7407 28.6876 11.661L31.8883 9.8149C32.3001 9.57584 32.4462 9.04459 32.2071 8.63287C31.968 8.22115 31.4368 8.07506 31.0251 8.31412L27.8243 10.1602C27.4126 10.3993 27.2665 10.9305 27.5055 11.3422C27.6251 11.6212 27.9305 11.7805 28.2493 11.7805Z" fill="#FFFFFE"/>
<path fill-rule="evenodd" clip-rule="evenodd" d="M23.1625 7.0391C23.2953 7.10551 23.4414 7.15863 23.6008 7.15863C23.9063 7.15863 24.1984 6.99926 24.3578 6.72035L26.2039 3.51957C26.443 3.10785 26.3102 2.56332 25.8852 2.33754C25.4734 2.09848 24.9289 2.23129 24.7031 2.65629L22.857 5.85707C22.5914 6.24223 22.7508 6.80004 23.1625 7.0391Z" fill="#FFFFFE"/>
<path fill-rule="evenodd" clip-rule="evenodd" d="M17.2523 5.44531C17.7304 5.44531 18.1289 5.06016 18.1289 4.56875V0.876562C18.1289 0.398437 17.7437 0 17.2523 0C16.7609 0 16.3757 0.385156 16.3757 0.876562V4.56875C16.3757 5.04688 16.7742 5.44531 17.2523 5.44531Z" fill="#FFFFFE"/>
<path fill-rule="evenodd" clip-rule="evenodd" d="M17.2524 7.46411C12.2188 7.46411 8.12817 11.568 8.12817 16.6149C8.12817 19.0055 8.83208 20.1743 9.70864 21.6352C10.6383 23.2024 11.7008 24.9688 12.1391 28.6211H14.7555V23.7735L12.3118 15.9907C12.2586 15.818 12.325 15.6188 12.4711 15.5125C12.6172 15.4063 12.8297 15.393 12.9758 15.4993C13.6133 15.9375 14.2508 15.9375 14.9946 15.9375H15.3797H15.393H19.125H19.1383H19.5235C20.2672 15.9375 20.9047 15.9375 21.5422 15.4993C21.7016 15.393 21.9008 15.393 22.0469 15.5125C22.193 15.6188 22.2594 15.818 22.2063 15.9907L19.7758 23.7735V28.6211H22.3922C22.8305 24.9821 23.893 23.2024 24.8227 21.6352C25.6993 20.161 26.4032 18.9922 26.4032 16.6149C26.3899 11.5813 22.2993 7.46411 17.2524 7.46411Z" fill="#FFFFFE"/>
<path fill-rule="evenodd" clip-rule="evenodd" d="M22.7773 29.4976C22.7641 29.4976 22.7641 29.4976 22.7641 29.4976C22.7508 29.4976 22.7508 29.4976 22.7375 29.4976H19.3242C16.8008 29.4976 14.2906 29.4976 11.7672 29.4976C11.7539 29.4976 11.7406 29.4976 11.7273 29.4976C11.1164 29.5108 10.625 30.0022 10.625 30.6132V32.4062C10.625 33.0171 11.1297 33.5351 11.7406 33.5351H22.7508C23.3617 33.5351 23.8664 33.0304 23.8664 32.4194V30.6265C23.8797 30.0288 23.3883 29.5108 22.7773 29.4976Z" fill="#FFFFFE"/>
<path fill-rule="evenodd" clip-rule="evenodd" d="M17.2523 38.7944C19.7492 38.7944 21.8078 36.8687 22.0335 34.4116H12.4578C12.6835 36.8687 14.7421 38.7944 17.2523 38.7944Z" fill="#FFFFFE"/>
<path fill-rule="evenodd" clip-rule="evenodd" d="M15.6321 28.6345H18.886V24.1587H18.2617H16.2563H16.243H16.2297H15.6188L15.6321 28.6345Z" fill="#FFFFFE"/>
<path fill-rule="evenodd" clip-rule="evenodd" d="M16.6946 20.3069V23.2952H17.8235V20.3069C17.8235 20.2671 17.8367 20.214 17.8367 20.1741C18.3016 18.7265 18.6071 17.6108 18.6735 16.814H15.818C15.8844 17.6108 16.1899 18.7132 16.6547 20.1741C16.668 20.214 16.6946 20.2538 16.6946 20.3069Z" fill="#FFFFFE"/>
<path fill-rule="evenodd" clip-rule="evenodd" d="M13.4274 16.668L15.4992 23.2953H15.8047V20.3734C15.3266 18.8594 15.0078 17.7039 14.9414 16.8141C14.4766 16.8273 13.9453 16.8273 13.4274 16.668Z" fill="#FFFFFE"/>
<path fill-rule="evenodd" clip-rule="evenodd" d="M21.0774 16.668C20.5461 16.8141 20.0282 16.8141 19.55 16.8141C19.4836 17.7039 19.1649 18.8594 18.6868 20.3734V23.2953H18.9922L21.0774 16.668Z" fill="#FFFFFE"/>
<path fill-rule="evenodd" clip-rule="evenodd" d="M10.1601 6.70694C10.3195 6.97257 10.5984 7.14522 10.9171 7.14522C11.0765 7.14522 11.2226 7.10538 11.3554 7.02569C11.7671 6.78663 11.9132 6.25538 11.6742 5.84366L9.82809 2.64288C9.58902 2.23116 9.05777 2.08507 8.64605 2.32413C8.23434 2.56319 8.08824 3.09444 8.32731 3.50616L10.1601 6.70694Z" fill="#FFFFFE"/>
</svg>
