<svg width="87" height="103" viewBox="0 0 87 103" fill="none" xmlns="http://www.w3.org/2000/svg">
<path d="M0.177155 22.5629L8.95054 30.9287C29.7014 50.7198 46.6241 74.1688 58.8685 100.099L60.2126 102.946C60.2126 102.946 83.1858 104.976 86.3938 84.206C66.2379 61.4473 49.6459 37.1528 35.9533 10.1273L31.8008 0.413086L0.177155 22.5629Z" fill="#65CEFE"/>
<path d="M31.7818 0.384608C32.9094 2.00185 26.7477 8.24738 18.0185 14.3346C9.29061 20.4224 1.25997 24.1207 0.132385 22.5041C-0.995203 20.8869 5.20621 14.5674 13.9354 8.47955C22.6639 2.39297 30.6548 -1.23137 31.7818 0.384608Z" fill="#C9EDF9"/>
<path d="M31.8178 0.443048L31.79 0.411621C31.79 0.411621 14.302 15.2135 7.09283 16.7247L9.31903 19.7554C11.9509 18.3306 14.9412 16.4817 18.0179 14.3351C26.6468 8.31793 32.7662 2.1461 31.8178 0.443048Z" fill="#C9EDF9"/>
<path d="M55.181 43.4204C55.2126 45.9722 54.237 56.9849 35.9129 61.5817C37.1188 63.2235 38.3038 64.8799 39.4667 66.552C51.0656 63.1226 56.2815 57.1679 58.6256 52.6348C58.9954 51.918 59.444 50.9545 59.7419 50.2112C58.194 47.9667 56.6739 45.7027 55.181 43.4204Z" fill="#FF6E53"/>
<path d="M37.5561 58.3255L10.5899 57.3613L16.9799 62.7847L13.1618 69.7143L38.6856 63.2076L37.5561 58.3255Z" fill="#FF6E53"/>
<path d="M40.015 64.5972L30.4327 81.2882L37.1718 78.7226L39.7664 84.0229L44.2698 66.4687L40.015 64.5972Z" fill="#FF6E53"/>
<path d="M43.6736 69.1219C38.9379 69.4569 34.8188 65.7733 34.4737 60.8945C34.1279 56.0156 37.6873 51.7879 42.4236 51.4528C47.1592 51.1177 51.2783 54.8015 51.6235 59.6804C51.9686 64.5599 48.4098 68.7875 43.6736 69.1219Z" fill="#FF6E53"/>
</svg>
