<svg width="160" height="161" viewBox="0 0 160 161" fill="none" xmlns="http://www.w3.org/2000/svg">
<path d="M82.5636 57.0334C58.8626 50.1385 38.5411 75.8548 50.6372 97.4907C52.8095 101.377 53.4137 105.948 52.5151 110.308L49.4232 125.314C48.5711 129.449 51.0384 133.545 55.0922 134.723L64.0711 137.336C68.1254 138.515 72.4047 136.382 73.904 132.435C79.3743 118.033 80.3486 112.327 87.8053 108.304C109.617 96.5344 106.271 63.9306 82.5636 57.0334Z" fill="#FFCB83"/>
<path d="M56.7606 116.734C61.0058 104.184 64.9903 90.6972 66.0062 86.8179C53.0797 81.4874 64.217 70.5017 67.4466 78.6801C68.3668 81.0106 68.1507 83.472 67.5744 86.0041C71.9375 87.6286 76.5979 88.391 81.2459 88.2489C82.4447 85.2263 83.2167 82.8711 84.9297 81.3899C87.5162 79.1519 91.4687 80.0961 91.6088 83.5494C91.6616 84.8462 91.1237 86.2156 90.2033 87.1224C88.2406 89.0591 84.9573 89.3871 82.164 89.5385C78.3134 99.2872 74.6847 109.232 71.362 119.146L70.1029 118.725C73.3707 108.971 76.9359 99.187 80.7173 89.5888C76.1372 89.6582 71.5586 88.8842 67.2524 87.3018C65.9406 92.2559 62.005 105.378 58.0187 117.159L56.7606 116.734ZM61.3641 81.1578C61.9055 82.8995 63.527 84.3266 66.3237 85.5104C66.8155 83.2685 66.9824 81.1197 66.2108 79.1683C64.474 74.7661 60.4547 78.2363 61.3641 81.1578ZM85.7983 82.3945C84.3588 83.6392 83.656 85.7802 82.7048 88.1732C84.9931 88.0098 87.6964 87.7293 89.2705 86.1767C90.3739 85.0884 90.73 82.9737 89.5542 81.9896C89.4278 81.8832 86.8085 81.5202 85.7983 82.3945Z" fill="#EEFBFF"/>
<path d="M52.5769 109.931C52.5537 110.056 52.5416 110.183 52.5156 110.309L49.4237 125.314C48.5716 129.449 51.0389 133.545 55.0924 134.724L64.0716 137.336C68.1259 138.515 72.4053 136.383 73.9045 132.435C76.3384 126.028 77.8821 121.346 79.5023 117.764L52.5769 109.931Z" fill="#65CEFE"/>
<path d="M71.069 39.2255L70.2366 24.0897C70.1563 22.6244 71.2782 21.3719 72.7428 21.2913C74.2067 21.2111 75.4604 22.3335 75.5418 23.7979L76.3742 38.9337C76.4545 40.399 75.3324 41.652 73.8677 41.7326C72.3947 41.8127 71.1491 40.6837 71.069 39.2255Z" fill="#FFCB83"/>
<path d="M42.8298 61.3656L29.1074 53.2618C27.8443 52.5163 27.4248 50.8874 28.1714 49.6235C28.9169 48.3604 30.5467 47.9406 31.8098 48.6876L45.5317 56.7909C46.7954 57.5367 47.2145 59.1662 46.4682 60.4296C45.7224 61.6918 44.0954 62.1116 42.8298 61.3656Z" fill="#FFCB83"/>
<path d="M7.62466 98.4795C7.14502 97.093 7.87931 95.5802 9.26578 95.1005C14.451 93.3054 19.8332 91.9993 25.2642 91.2188C26.7163 91.0093 28.0627 92.0178 28.2722 93.47C28.481 94.9219 27.4731 96.2685 26.0206 96.4771C20.9229 97.2107 15.871 98.4362 11.0045 100.12C9.62425 100.599 8.10643 99.8733 7.62466 98.4795Z" fill="#FFCB83"/>
<path d="M106.764 55.5051C105.648 54.551 105.518 52.8737 106.471 51.7595C110.998 46.4639 114.988 40.6788 118.327 34.5649C119.031 33.2772 120.645 32.8007 121.932 33.507C123.219 34.2104 123.693 35.8245 122.989 37.1116C119.474 43.5484 115.275 49.6379 110.51 55.2124C109.551 56.3332 107.87 56.4529 106.764 55.5051Z" fill="#FFCB83"/>
<path d="M112.706 80.9704C112.931 79.5204 114.287 78.5268 115.737 78.7509L132.772 81.3861C134.224 81.6113 135.216 82.9684 134.992 84.4173C134.767 85.8674 133.41 86.8611 131.961 86.6368L114.925 84.0019C113.478 83.7775 112.481 82.4239 112.706 80.9704Z" fill="#FFCB83"/>
<path d="M118.212 132.289C117.997 132.186 117.793 132.053 117.605 131.888C113.139 127.97 109.085 123.559 105.554 118.779C104.683 117.6 104.933 115.936 106.113 115.064C107.292 114.192 108.956 114.442 109.828 115.622C113.133 120.098 116.929 124.226 121.109 127.895C122.212 128.862 122.322 130.54 121.354 131.643C120.551 132.558 119.258 132.789 118.212 132.289Z" fill="#FFCB83"/>
</svg>
