<svg width="38" height="40" viewBox="0 0 38 40" fill="none" xmlns="http://www.w3.org/2000/svg">
<path fill-rule="evenodd" clip-rule="evenodd" d="M31.3172 11.7273C31.3172 9.12417 30.4805 6.58745 28.9664 4.48901L28.0367 5.4187C29.325 7.26479 30.0289 9.4562 30.0289 11.714C30.0289 14.6492 28.8867 17.3851 26.8149 19.4703C24.743 21.5421 21.9938 22.6843 19.0586 22.6843C16.8008 22.6843 14.5961 21.9804 12.7633 20.6921L11.8336 21.6218C13.9321 23.1492 16.4688 23.9726 19.0719 23.9726C22.3391 23.9726 25.4336 22.6976 27.7446 20.3867C30.0422 18.0757 31.3172 14.9945 31.3172 11.7273Z" fill="#FFFFFE"/>
<path fill-rule="evenodd" clip-rule="evenodd" d="M27.2797 16.482C26.7352 15.8711 25.6195 15.4328 24.9289 15.5656C24.6234 15.632 24.4773 15.7781 24.4242 16.0703C24.2914 16.8273 23.8 17.425 23.0695 17.6906C22.2461 17.996 21.25 17.8234 20.5992 17.2789C20.3336 17.0531 19.9883 16.8406 19.8023 17.0398C19.4039 17.4781 19.4703 19.0453 20.0148 19.5632C20.4531 19.975 20.7187 20.4796 20.7984 21.064C23.5609 20.5461 25.925 18.8195 27.2797 16.482Z" fill="#FFFFFE"/>
<path fill-rule="evenodd" clip-rule="evenodd" d="M11.1164 15.9906C11.4883 15.8843 11.8469 15.8046 12.0992 15.6851C12.4313 15.5257 12.5906 15.3796 12.7766 15.2203C13.2414 14.782 13.6531 14.5164 15.0477 14.5429C16.15 14.5695 16.9203 14.2773 17.3719 13.6531C17.8898 12.9359 17.8633 11.9265 17.6109 11.2492C17.3719 10.6117 16.7078 10.6382 15.6188 10.7578C14.8352 10.8507 14.0383 10.9437 13.5469 10.4523C13.2414 10.1468 13.1352 9.6687 13.2414 9.0312C13.4008 7.94214 14.1977 7.25151 15.4859 7.07886C16.5219 6.94604 17.1328 6.56089 17.2922 5.94995C17.518 5.07339 16.8406 3.74526 15.725 2.82886C12.1391 4.18354 9.5625 7.66323 9.5625 11.7273C9.5625 13.3078 9.94766 14.7953 10.6383 16.1101C10.7844 16.057 10.9437 16.0171 11.1164 15.9906Z" fill="#FFFFFE"/>
<path fill-rule="evenodd" clip-rule="evenodd" d="M18.1156 6.1625C17.9297 6.83984 17.3586 7.70313 15.5789 7.94219C14.2375 8.11484 14.1312 8.89844 14.0914 9.15078C14.0383 9.49609 14.0648 9.73516 14.1578 9.84141C14.3437 10.0273 14.9547 9.96094 15.4992 9.89453C16.5218 9.775 17.9164 9.61562 18.4078 10.9437C18.7133 11.7805 18.7929 13.1086 18.0492 14.1578C17.6109 14.7555 16.7344 15.4594 14.9945 15.4062C13.8523 15.3664 13.6531 15.5656 13.3476 15.8445C13.1484 16.0305 12.9093 16.2562 12.4578 16.4555C12.1258 16.6148 11.7406 16.7078 11.3289 16.8141C11.2492 16.8273 11.1695 16.8539 11.0765 16.8805C12.7765 19.4969 15.7117 21.2102 19.0453 21.2102C19.3508 21.2102 19.6297 21.1969 19.9219 21.1703C19.8687 20.7852 19.6961 20.4664 19.4039 20.1875C18.5406 19.3773 18.3945 17.2922 19.1383 16.4555C19.3773 16.1898 20.0414 15.6719 21.157 16.6148C21.5687 16.9602 22.2328 17.0664 22.764 16.8672C23.0695 16.7609 23.4679 16.4953 23.5609 15.9109C23.6672 15.2734 24.1054 14.8352 24.7429 14.7023C25.6593 14.5164 26.8945 14.9414 27.6914 15.6586C28.1961 14.543 28.5015 13.3078 28.5414 12.0195C27.8773 11.8203 26.1906 11.382 24.464 11.6609C22.9101 11.9133 22.4187 11.05 22.2726 10.6516C21.9804 9.82812 22.3258 8.69922 22.9765 8.34063C23.3484 8.12813 23.189 7.45078 22.3656 5.72422C22.0469 5.06016 22.1797 4.56875 22.339 4.25C22.5781 3.78516 23.0695 3.49297 23.5078 3.32031C22.1664 2.58984 20.639 2.19141 19.0187 2.19141C18.1953 2.19141 17.3984 2.29766 16.6281 2.49688C17.6906 3.53281 18.4476 4.95391 18.1156 6.1625Z" fill="#FFFFFE"/>
<path fill-rule="evenodd" clip-rule="evenodd" d="M23.1493 4.70156C23.1094 4.76797 23.0032 4.96719 23.1891 5.37891C23.8797 6.82656 24.6501 8.44688 23.4282 9.1375C23.2157 9.25703 22.9501 9.89453 23.1227 10.3992C23.2555 10.7977 23.6672 10.9438 24.3313 10.8375C26.0313 10.5586 27.6782 10.9039 28.5415 11.143C28.3555 8.18125 26.8149 5.59141 24.5305 3.98438C24.1321 4.0375 23.3618 4.28984 23.1493 4.70156Z" fill="#FFFFFE"/>
<path fill-rule="evenodd" clip-rule="evenodd" d="M19.0719 24.8492C18.5805 24.8492 18.1024 24.8227 17.6243 24.7695V26.443H20.5196V24.7828C20.0282 24.8359 19.55 24.8492 19.0719 24.8492Z" fill="#FFFFFE"/>
<path fill-rule="evenodd" clip-rule="evenodd" d="M15.2601 27.3062C14.5961 27.3062 14.0648 27.8374 14.0648 28.5015V29.5374H24.039V28.5015C24.039 27.8374 23.5078 27.3062 22.8437 27.3062H20.9312H17.1726H15.2601Z" fill="#FFFFFE"/>
<path fill-rule="evenodd" clip-rule="evenodd" d="M27.0672 5.13979L28.475 3.73198L27.0273 2.29761L25.6328 3.70542C26.1508 4.15698 26.6422 4.63511 27.0672 5.13979Z" fill="#FFFFFE"/>
<path fill-rule="evenodd" clip-rule="evenodd" d="M11.05 18.2883L9.64221 19.6961L11.0766 21.1305L12.4844 19.7227C11.9399 19.311 11.475 18.8196 11.05 18.2883Z" fill="#FFFFFE"/>
<path fill-rule="evenodd" clip-rule="evenodd" d="M8.99138 23.4415C9.85466 23.4415 10.5586 22.7642 10.625 21.9274L8.87185 20.1743C8.03513 20.2407 7.35779 20.9446 7.35779 21.8079C7.35779 22.711 8.08826 23.4415 8.99138 23.4415Z" fill="#FFFFFE"/>
<path fill-rule="evenodd" clip-rule="evenodd" d="M30.786 1.63359C30.786 0.730469 30.0555 0 29.1524 0C28.2891 0 27.5852 0.677344 27.5188 1.51406L29.2719 3.26719C30.1086 3.20078 30.786 2.49688 30.786 1.63359Z" fill="#FFFFFE"/>
<path fill-rule="evenodd" clip-rule="evenodd" d="M12.1789 35.2351V37.6522C12.1789 37.8116 12.0992 37.9444 11.9664 38.0241C11.8336 38.1038 11.6742 38.1038 11.5414 38.0374L9.78828 37.1343L8.03516 38.0507C7.96875 38.0905 7.90234 38.1038 7.83594 38.1038C7.75625 38.1038 7.67656 38.0905 7.61016 38.0374C7.47734 37.9577 7.39766 37.8249 7.39766 37.6655V35.2483H3.89141C3.65234 35.2483 3.45312 35.0624 3.45312 34.8101C3.45312 34.571 3.63906 34.3718 3.89141 34.3718H7.82266H11.7273H37.2008C37.2406 33.0569 37.4797 31.7288 37.918 30.4272H24.4773H13.6266H3.86484C1.73984 30.4272 0 32.1538 0 34.2921V35.328C0 37.453 1.72656 39.1929 3.86484 39.1929H37.9578C37.5195 37.878 37.2805 36.5632 37.2406 35.2483H12.1789V35.2351Z" fill="#FFFFFE"/>
<path fill-rule="evenodd" clip-rule="evenodd" d="M9.58904 36.2445C9.72185 36.1781 9.86794 36.1781 10.0008 36.2445L11.3156 36.9351V35.2351H8.28748V36.9351L9.58904 36.2445Z" fill="#FFFFFE"/>
</svg>
