<svg width="34" height="41" viewBox="0 0 34 41" fill="none" xmlns="http://www.w3.org/2000/svg">
<path fill-rule="evenodd" clip-rule="evenodd" d="M32.9311 38.0307H25.7213C25.1909 38.0307 24.7614 37.6011 24.7614 37.0708C24.7614 36.5404 25.1909 36.1109 25.7213 36.1109H31.9712V35.4677C30.0477 35.03 28.6079 33.3059 28.6079 31.252C28.6079 29.1982 30.0477 27.4741 31.9712 27.0364V26.3932H6.77859C4.09918 26.3932 1.91981 28.5729 1.91981 31.252C1.91981 33.931 4.09956 36.1109 6.77859 36.1109H9.47634C10.0066 36.1109 10.4362 36.5404 10.4362 37.0708C10.4362 37.6011 10.0066 38.0307 9.47634 38.0307H6.77859C3.04102 38.0307 0 34.9899 0 31.252C0 27.514 3.04102 24.4734 6.77859 24.4734H32.9312C33.4615 24.4734 33.891 24.9029 33.891 25.4333V27.8887C33.891 28.419 33.4615 28.8486 32.9312 28.8486C31.6059 28.8486 30.5278 29.9268 30.5278 31.252C30.5278 32.5773 31.6059 33.6554 32.9312 33.6554C33.4615 33.6554 33.891 34.085 33.891 34.6153V37.0708C33.891 37.6011 33.4614 38.0307 32.9311 38.0307ZM22.5211 38.0307H15.3116C14.7816 38.0307 14.3517 37.6011 14.3517 37.0708C14.3517 36.5404 14.7816 36.1109 15.3116 36.1109H22.5211C23.0515 36.1109 23.481 36.5404 23.481 37.0708C23.481 37.6011 23.0515 38.0307 22.5211 38.0307Z" fill="#FEFEFE"/>
<path fill-rule="evenodd" clip-rule="evenodd" d="M26.5846 32.2121H7.86948C7.33921 32.2121 6.90967 31.7825 6.90967 31.2521C6.90967 30.7219 7.33921 30.2922 7.86948 30.2922H26.5846C27.1148 30.2922 27.5445 30.7219 27.5445 31.2521C27.5445 31.7825 27.1148 32.2121 26.5846 32.2121Z" fill="#FEFEFE"/>
<path fill-rule="evenodd" clip-rule="evenodd" d="M15.3119 40.9553C15.0602 40.9553 14.8129 40.8563 14.6294 40.6703L12.4143 38.4299L10.1528 40.6763C9.87754 40.9493 9.46491 41.0299 9.10765 40.8817C8.74964 40.7327 8.51672 40.3831 8.51672 39.9955V31.2521C8.51672 30.7217 8.94627 30.2922 9.47663 30.2922L15.312 30.292C15.8419 30.292 16.2719 30.7216 16.2719 31.2519V39.9954C16.2719 40.3846 16.037 40.7353 15.6769 40.8833C15.5583 40.9319 15.4345 40.9553 15.3119 40.9553ZM10.4362 32.2118V37.6889L11.7437 36.3901C11.9247 36.2104 12.1629 36.112 12.4243 36.1111C12.6793 36.112 12.9236 36.2147 13.1025 36.3959L14.3519 37.6593V32.2117L10.4362 32.2118Z" fill="#FEFEFE"/>
<path fill-rule="evenodd" clip-rule="evenodd" d="M0.959907 32.2119C0.429545 32.2119 0 31.7824 0 31.252V5.21943C0 2.34142 2.34142 0 5.21943 0H7.56151C8.0915 0 8.52142 0.429543 8.52142 0.959907C8.52142 1.49018 8.0915 1.91981 7.56151 1.91981H5.21933C3.39977 1.91981 1.91962 3.39997 1.91962 5.21943V31.252C1.91981 31.7824 1.49008 32.2119 0.959907 32.2119ZM32.9311 26.3932C32.4007 26.3932 31.9712 25.9637 31.9712 25.4333V2.26971C31.9712 2.08016 31.8111 1.91982 31.6212 1.91982H10.7611C10.2307 1.91982 9.80118 1.49018 9.80118 0.959909C9.80118 0.429546 10.2307 1.43051e-06 10.7611 1.43051e-06H31.6212C32.8727 1.43051e-06 33.8909 1.01821 33.8909 2.26971V25.4333C33.8909 25.9637 33.4613 26.3932 32.9311 26.3932Z" fill="#FEFEFE"/>
<path fill-rule="evenodd" clip-rule="evenodd" d="M5.21931 26.6062C4.68894 26.6062 4.2594 26.1767 4.2594 25.6463V0.959907C4.2594 0.429922 4.68894 0 5.21931 0C5.74967 0 6.17921 0.429922 6.17921 0.959907V25.6459C6.17921 26.1765 5.74967 26.6062 5.21931 26.6062Z" fill="#FEFEFE"/>
<path fill-rule="evenodd" clip-rule="evenodd" d="M28.5771 18.3121H9.57368C9.04332 18.3121 8.61377 17.8826 8.61377 17.3522C8.61377 16.8219 9.04331 16.3923 9.57368 16.3923H28.5771C29.1073 16.3923 29.537 16.8219 29.537 17.3522C29.537 17.8826 29.1073 18.3121 28.5771 18.3121Z" fill="#FEFEFE"/>
<path fill-rule="evenodd" clip-rule="evenodd" d="M28.5768 22.996H9.57368C9.04332 22.996 8.61377 22.5664 8.61377 22.0361C8.61377 21.5057 9.04331 21.0762 9.57368 21.0762H28.5771C29.1073 21.0762 29.537 21.5057 29.537 22.0361C29.537 22.5664 29.107 22.996 28.5768 22.996Z" fill="#FEFEFE"/>
<path fill-rule="evenodd" clip-rule="evenodd" d="M29.3822 14.6036H8.76826C8.23827 14.6036 7.80835 14.1737 7.80835 13.6437V4.35737C7.80835 3.82738 8.23827 3.39746 8.76826 3.39746H29.3824C29.9127 3.39746 30.3423 3.82738 30.3423 4.35737V13.6434C30.3421 14.1737 29.9124 14.6036 29.3822 14.6036ZM9.72816 12.6838H28.4226V5.31727H9.72816V12.6838Z" fill="#FEFEFE"/>
</svg>
