<svg width="35" height="35" viewBox="0 0 35 35" fill="none" xmlns="http://www.w3.org/2000/svg">
<path d="M32.3778 10.1699C31.5458 8.33154 30.3516 6.68104 28.8353 5.25866C27.319 3.84971 25.5611 2.73596 23.602 1.95768C21.5758 1.15256 19.4288 0.75 17.2147 0.75C15.0006 0.75 12.8536 1.15256 10.8274 1.95768C8.86829 2.73596 7.11045 3.83629 5.59414 5.25866C4.07784 6.68104 2.88359 8.33154 2.05163 10.1699C1.19284 12.0753 0.75 14.115 0.75 16.2083C0.75 19.8716 2.11869 23.3873 4.62798 26.1783L3.28611 33.4915L10.4249 30.3113C12.5584 31.2237 14.8262 31.68 17.2013 31.68C19.4153 31.68 21.5623 31.2774 23.5886 30.4723C25.5477 29.694 27.3055 28.5937 28.8218 27.1713C30.3381 25.7489 31.5324 24.0984 32.3643 22.2601C33.2231 20.3546 33.666 18.315 33.666 16.2217C33.6794 14.115 33.2366 12.0888 32.3778 10.1699Z" stroke="#141414" stroke-width="1.5"/>
<path d="M23.8971 19.2933C23.1994 18.9444 22.6895 18.7297 22.3272 18.5955C22.0991 18.515 21.5623 18.2734 21.3745 18.4211C20.784 18.9041 20.1534 20.2728 19.4824 20.5278C17.8185 20.2057 16.2754 19.0651 15.0677 17.8977C14.531 17.3878 13.538 15.9386 13.3233 15.5495C13.283 15.1469 14.0076 14.6102 14.1686 14.3015C15.0006 13.3622 14.3699 12.7718 14.2626 12.3827C14.0747 11.9801 13.7527 11.2555 13.4709 10.6651C13.2294 10.2759 13.1756 9.69893 12.7462 9.48424C10.9213 8.54493 9.87469 10.4235 9.4453 11.4031C6.8555 17.6428 22.4211 29.5183 25.5879 21.3329C25.7489 20.6217 25.6818 20.3533 25.4403 20.0313C24.9572 19.6958 24.3936 19.5482 23.8971 19.2933Z" stroke="#141414" stroke-width="1.5"/>
</svg>
